<svg xmlns="http://www.w3.org/2000/svg" viewBox="0 0 24 24" width="24" height="24">
  <path fill="#1DA1F2" d="M23.643 4.937c-.835.37-1.732.62-2.675.733a4.695 4.695 0 0 0 2.048-2.591 9.301 9.301 0 0 1-2.964 1.134 4.655 4.655 0 0 0-7.917 4.244 13.197 13.197 0 0 1-9.581-4.861 4.653 4.653 0 0 0 1.44 6.21 4.65 4.65 0 0 1-2.109-.583v.058a4.656 4.656 0 0 0 3.733 4.562 4.675 4.675 0 0 1-2.1.08 4.662 4.662 0 0 0 4.35 3.23 9.336 9.336 0 0 1-5.785 1.995A9.44 9.44 0 0 1 2 19.54a13.163 13.163 0 0 0 7.115 2.086c8.535 0 13.207-7.067 13.207-13.207 0-.2-.005-.4-.014-.598a9.405 9.405 0 0 0 2.335-2.384z"/>
</svg>
